<?xml version="1.0" encoding="UTF-8"?>
<svg version="1.1" xmlns="http://www.w3.org/2000/svg" width="512" height="512">
<path d="M0 0 C1.10170532 -0.0038269 2.20341064 -0.00765381 3.33850098 -0.01159668 C5.65813109 -0.01430778 7.9777922 -0.00700314 10.29736328 0.00976562 C13.83305496 0.03118521 17.36671472 0.00993495 20.90234375 -0.015625 C23.16406695 -0.01298158 25.4257889 -0.00785632 27.6875 0 C28.73667603 -0.00809692 29.78585205 -0.01619385 30.86682129 -0.02453613 C37.13212742 0.05488717 42.24971394 0.64606435 47.34375 4.53125 C50.7806127 8.56950281 51.91994929 11.99720702 52.74609375 17.1796875 C54.77940308 30.52439132 54.77940308 30.52439132 61.57275391 41.56689453 C66.68532815 44.45874654 72.15541518 45.73862334 77.86962891 46.92041016 C82.32245082 48.01977471 85.94791635 50.36389184 89.87109375 52.6953125 C93.47169622 53.91257779 94.87413212 53.1105522 98.34375 51.53125 C101.97914703 49.59708189 105.53937763 47.54740142 109.09375 45.46875 C110.9842055 44.37340533 112.87482239 43.27833913 114.765625 42.18359375 C115.59674805 41.69882568 116.42787109 41.21405762 117.28417969 40.71459961 C120.63320759 38.79037744 122.71233843 38.31949702 126.59375 38.21875 C127.52703125 38.18136719 128.4603125 38.14398438 129.421875 38.10546875 C136.33994113 39.11358266 141.30248915 45.16953414 146.04296875 49.89453125 C147.11826591 50.95984322 147.11826591 50.95984322 148.21528625 52.04667664 C149.72304941 53.54435291 151.22814592 55.04471805 152.73071289 56.54760742 C155.02394399 58.83645795 157.33269874 61.10882672 159.64257812 63.38085938 C161.11035401 64.84276772 162.5771833 66.3056272 164.04296875 67.76953125 C164.73049728 68.44268875 165.41802582 69.11584625 166.12638855 69.80940247 C170.96982676 74.69932843 173.68804451 78.81558557 174.90625 85.71875 C173.82764006 93.02932847 169.80830038 99.25144107 165.90625 105.4296875 C165.4930249 106.09033203 165.0797998 106.75097656 164.65405273 107.43164062 C163.8368471 108.72484335 163.00348318 110.00800795 162.15258789 111.27929688 C160.35860584 114.1008627 159.34248727 116.06151498 159.3515625 119.4375 C160.92413963 124.34096884 163.08934961 128.91048065 165.29614258 133.55566406 C167.44792447 138.18535508 168.70546058 142.21217342 169.53125 147.28125 C170.22746452 150.22308153 170.22746452 150.22308153 172.34375 152.53125 C178.09845131 155.41624395 184.54827031 156.62338379 190.80078125 157.97265625 C204.48256799 160.97802569 204.48256799 160.97802569 208.53125 165.59375 C210.94692766 169.50881379 211.47193406 172.22396467 211.50488281 176.73364258 C211.51449036 177.79517044 211.5240979 178.8566983 211.53399658 179.95039368 C211.5403714 181.67071053 211.5403714 181.67071053 211.546875 183.42578125 C211.55257507 184.60589279 211.55827515 185.78600433 211.56414795 187.00187683 C211.57360036 189.50099795 211.58013288 192.00013155 211.58398438 194.49926758 C211.59368483 198.31809301 211.62470476 202.13637915 211.65625 205.95507812 C211.6627806 208.3828093 211.66803085 210.81054433 211.671875 213.23828125 C211.6903952 214.94948906 211.6903952 214.94948906 211.70928955 216.69526672 C211.68066587 226.91003068 211.68066587 226.91003068 208.34375 231.53125 C204.7511823 235.08973923 201.43181896 236.36720866 196.58203125 237.63671875 C195.63423042 237.89102409 195.63423042 237.89102409 194.6672821 238.15046692 C192.66648394 238.68491325 190.66177457 239.20235456 188.65625 239.71875 C186.64110247 240.24940632 184.62690493 240.7835053 182.61308289 241.31916809 C180.79479878 241.8009628 178.97423139 242.27411574 177.15356445 242.74682617 C174.41967624 243.41402041 174.41967624 243.41402041 172.34375 244.53125 C171.392969 246.58053161 171.392969 246.58053161 170.57421875 249.08984375 C170.24228516 250.03408203 169.91035156 250.97832031 169.56835938 251.95117188 C169.22611328 252.94697266 168.88386719 253.94277344 168.53125 254.96875 C166.20558998 261.72812444 163.74876983 268.04280226 160.19262695 274.26196289 C159.11338522 277.14707991 159.43516488 278.61421355 160.34375 281.53125 C161.28602242 283.64861 161.28602242 283.64861 162.48828125 285.67578125 C162.91818359 286.43568359 163.34808594 287.19558594 163.79101562 287.97851562 C164.24154297 288.75904297 164.69207031 289.53957031 165.15625 290.34375 C175.26841443 308.05859899 175.26841443 308.05859899 174.34375 314.53125 C171.94735725 321.08163625 167.84875872 325.60306166 162.9453125 330.42578125 C162.23273285 331.13981613 161.5201532 331.85385101 160.78598022 332.58952332 C159.28629623 334.08755615 157.78169694 335.58068286 156.27246094 337.0690918 C153.97028503 339.34223433 151.6874329 341.63354559 149.40625 343.92773438 C147.94121513 345.38653323 146.47510515 346.84425334 145.0078125 348.30078125 C144.32949371 348.98203568 143.65117493 349.6632901 142.95230103 350.3651886 C138.16107428 355.06253183 133.63702491 358.93159147 126.60546875 359.046875 C120.56297918 358.85228444 116.23779824 356.35127069 111.15625 353.28125 C110.30611328 352.79011719 109.45597656 352.29898437 108.58007812 351.79296875 C102.08384894 348.03067386 102.08384894 348.03067386 99.38427734 346.20898438 C96.39784669 344.25792619 94.92082514 343.42680541 91.34375 344.07421875 C89.85875 344.79544922 89.85875 344.79544922 88.34375 345.53125 C87.23 346.04300781 86.11625 346.55476563 84.96875 347.08203125 C83.75883002 347.6659948 82.5505125 348.25328912 81.34375 348.84375 C77.47500203 350.73146146 74.08100834 352.3526863 69.88525391 353.36889648 C62.50858162 355.20498694 62.50858162 355.20498694 57.53417969 360.55151367 C56.3111409 364.32527916 55.44004797 368.07668699 54.71875 371.96875 C54.16391648 374.57659524 53.57732732 377.17598687 52.9921875 379.77734375 C52.76708496 380.92904053 52.54198242 382.0807373 52.31005859 383.26733398 C50.75886593 388.50682228 48.58244257 392.10935693 43.82226562 394.87304688 C38.57286086 397.21062043 33.34952929 397.10619621 27.6875 397.0625 C26.58579468 397.0663269 25.48408936 397.07015381 24.34899902 397.07409668 C22.02936891 397.07680778 19.7097078 397.06950314 17.39013672 397.05273438 C13.85444504 397.03131479 10.32078528 397.05256505 6.78515625 397.078125 C4.52343305 397.07548158 2.2617111 397.07035632 0 397.0625 C-1.04917603 397.07059692 -2.09835205 397.07869385 -3.17932129 397.08703613 C-9.44462742 397.00761283 -14.56221394 396.41643565 -19.65625 392.53125 C-23.0931127 388.49299719 -24.23244929 385.06529298 -25.05859375 379.8828125 C-27.09190308 366.53810868 -27.09190308 366.53810868 -33.88525391 355.49560547 C-38.99782815 352.60375346 -44.46791518 351.32387666 -50.18212891 350.14208984 C-54.63495082 349.04272529 -58.26041635 346.69860816 -62.18359375 344.3671875 C-65.78419622 343.14992221 -67.18663212 343.9519478 -70.65625 345.53125 C-74.29164703 347.46541811 -77.85187763 349.51509858 -81.40625 351.59375 C-83.2967055 352.68909467 -85.18732239 353.78416087 -87.078125 354.87890625 C-87.90924805 355.36367432 -88.74037109 355.84844238 -89.59667969 356.34790039 C-93.50507983 358.59351626 -96.11812482 358.61528936 -100.65625 358.53125 C-96.98980555 354.11678289 -93.19905359 350.04777892 -89.04736328 346.09008789 C-79.97490686 337.57842725 -79.97490686 337.57842725 -74.65625 326.53125 C-74.66527344 325.33371094 -74.67429687 324.13617188 -74.68359375 322.90234375 C-73.95467782 316.34746008 -68.13630795 312.29202692 -63.59375 308.03125 C-62.63316652 307.10582365 -61.67416446 306.17875284 -60.71679688 305.25 C-58.37831026 302.99377171 -56.02509193 300.75551473 -53.65625 298.53125 C-50.19493845 299.87073392 -47.02511933 301.40654033 -43.79907227 303.24731445 C-17.10108914 318.32880819 15.51003924 322.14827795 45.12402344 314.17285156 C77.04607702 304.94593154 102.6277814 284.4224556 119.17724609 255.6796875 C133.97702368 228.42183009 137.44641977 195.62856346 129.08984375 165.8203125 C119.61655499 134.68809408 99.46838122 108.93074181 70.84375 93.30859375 C41.17132041 78.2405631 7.95210504 74.67394414 -23.9140625 84.8515625 C-38.17976441 89.72000285 -51.00939968 96.97359458 -62.65625 106.53125 C-63.50703125 107.22863281 -64.3578125 107.92601562 -65.234375 108.64453125 C-89.32480676 129.36381768 -103.07663266 159.00259363 -105.65625 190.53125 C-107.24934982 216.00844942 -100.89180832 242.17791251 -86.65625 263.53125 C-87.0641914 269.2747709 -92.69801953 273.29622034 -96.46875 277.15625 C-97.67047852 278.46335937 -97.67047852 278.46335937 -98.89648438 279.796875 C-104.39001245 285.4165411 -108.08006756 287.25892883 -115.85009766 288.05566406 C-124.36202405 289.49826304 -130.86775577 298.5343424 -136.59375 304.40625 C-138.28820918 306.13492788 -139.9847052 307.86161247 -141.68359375 309.5859375 C-142.42343506 310.34374512 -143.16327637 311.10155273 -143.92553711 311.88232422 C-145.65625 313.53125 -145.65625 313.53125 -146.65625 313.53125 C-146.51249846 303.70480537 -141.64880979 297.23550648 -136.49609375 289.15039062 C-135.86574219 288.12751953 -135.23539063 287.10464844 -134.5859375 286.05078125 C-134.00054199 285.13401611 -133.41514648 284.21725098 -132.81201172 283.27270508 C-131.11026445 279.23617782 -131.97504014 276.39233314 -133.44067383 272.38818359 C-133.74513428 271.74187988 -134.04959473 271.09557617 -134.36328125 270.4296875 C-134.70294922 269.69105469 -135.04261719 268.95242188 -135.39257812 268.19140625 C-135.9252832 267.06025391 -135.9252832 267.06025391 -136.46875 265.90625 C-137.1687813 264.41687759 -137.86269997 262.92461832 -138.55078125 261.4296875 C-138.91429687 260.65858643 -139.2778125 259.88748535 -139.65234375 259.09301758 C-140.65625 256.53125 -140.65625 256.53125 -141.26953125 253.4440918 C-142.01307013 249.99387072 -142.74460482 247.5100957 -144.65625 244.53125 C-149.5364664 241.8487141 -154.61906286 240.75149275 -160.03125 239.59375 C-162.15803291 239.0992899 -164.2798933 238.5901393 -166.39907837 238.06407166 C-168.32357858 237.59241162 -170.25811422 237.16226392 -172.19287109 236.73461914 C-176.95826846 235.07885687 -180.4894246 232.89397815 -182.8061676 228.20275879 C-183.71295252 225.35305399 -183.91612212 223.08670489 -183.9309082 220.10180664 C-183.94520622 218.50974144 -183.94520622 218.50974144 -183.95979309 216.88551331 C-183.95888168 215.74895798 -183.95797028 214.61240265 -183.95703125 213.44140625 C-183.96131638 212.2641246 -183.9656015 211.08684296 -183.97001648 209.87388611 C-183.97575382 207.38671511 -183.97626445 204.89952734 -183.97192383 202.41235352 C-183.9687645 198.6111992 -183.99222953 194.81082373 -184.01757812 191.00976562 C-184.01985125 188.59114681 -184.02055455 186.17252591 -184.01953125 183.75390625 C-184.028741 182.61937515 -184.03795074 181.48484406 -184.04743958 180.31593323 C-184.00598268 173.23075804 -183.5882851 168.49604349 -178.40551758 163.25537109 C-175.13427512 161.20390904 -172.46514557 160.61694926 -168.66796875 159.9453125 C-154.32952256 157.5827985 -154.32952256 157.5827985 -142.50537109 150.12451172 C-139.57744622 144.78839496 -138.36537994 139.20599464 -137.32324219 133.25439453 C-136.37983314 129.40271646 -134.5733531 126.21738387 -132.56884766 122.81811523 C-131.39518011 119.87703874 -131.68754636 118.52597235 -132.65625 115.53125 C-133.55844879 113.6923887 -134.53425032 111.88864908 -135.5625 110.1171875 C-136.14128906 109.10914063 -136.72007812 108.10109375 -137.31640625 107.0625 C-137.92355469 106.0209375 -138.53070313 104.979375 -139.15625 103.90625 C-140.35643713 101.83204125 -141.55445736 99.75657673 -142.75 97.6796875 C-143.28302734 96.76364746 -143.81605469 95.84760742 -144.36523438 94.90380859 C-146.68812956 90.63491763 -147.05149052 87.3531843 -146.65625 82.53125 C-144.34059507 75.83914519 -139.93722931 71.25079828 -134.96875 66.3828125 C-134.22923096 65.6442099 -133.48971191 64.9056073 -132.7277832 64.1446228 C-131.17254086 62.59539088 -129.61247227 61.0509903 -128.04785156 59.51123047 C-125.65302447 57.15307386 -123.27474777 54.77914439 -120.8984375 52.40234375 C-119.38115121 50.89488372 -117.86295326 49.38834061 -116.34375 47.8828125 C-115.63323486 47.17452301 -114.92271973 46.46623352 -114.19067383 45.73648071 C-113.52318115 45.08174774 -112.85568848 44.42701477 -112.16796875 43.75244141 C-111.58490967 43.17700592 -111.00185059 42.60157043 -110.40112305 42.00869751 C-106.06499406 38.33713929 -102.13939328 38.0281695 -96.60742188 38.13476562 C-91.56183712 38.81263042 -87.6983844 41.16198165 -83.40625 43.78125 C-82.560625 44.27238281 -81.715 44.76351562 -80.84375 45.26953125 C-74.46933646 48.98134038 -74.46933646 48.98134038 -71.70117188 50.85351562 C-68.71405678 52.80448542 -67.23352706 53.63573113 -63.65625 52.98828125 C-62.66625 52.50746094 -61.67625 52.02664062 -60.65625 51.53125 C-59.5425 51.01949219 -58.42875 50.50773437 -57.28125 49.98046875 C-56.07133002 49.3965052 -54.8630125 48.80921088 -53.65625 48.21875 C-49.78750203 46.33103854 -46.39350834 44.7098137 -42.19775391 43.69360352 C-34.82108162 41.85751306 -34.82108162 41.85751306 -29.84667969 36.51098633 C-28.6236409 32.73722084 -27.75254797 28.98581301 -27.03125 25.09375 C-26.47641648 22.48590476 -25.88982732 19.88651313 -25.3046875 17.28515625 C-24.96703369 15.55761108 -24.96703369 15.55761108 -24.62255859 13.79516602 C-23.07136593 8.55567772 -20.89494257 4.95314307 -16.13476562 2.18945312 C-10.88536086 -0.14812043 -5.66202929 -0.04369621 0 0 Z " fill="#2E394B" transform="translate(240.65625,57.46875)"/>
<path d="M0 0 C16.65992762 14.397054 27.73548445 33.69073185 29.87109375 55.91015625 C29.93490234 56.94462891 29.93490234 56.94462891 30 58 C30.05285156 58.84433594 30.10570312 59.68867188 30.16015625 60.55859375 C30.80137993 81.10563065 24.23454858 101.84945381 10.5 117.3125 C9.00766699 118.88232434 7.50829462 120.44550536 6 122 C5.45988281 122.61359375 4.91976562 123.2271875 4.36328125 123.859375 C-7.51347725 136.90286796 -26.84381845 145.22632905 -44.28613281 146.11669922 C-70.54734726 147.12136311 -91.23890465 140.23444117 -111 123 C-126.86793101 106.23234094 -135.74014106 84.48276754 -135.25 61.29296875 C-133.62202657 39.84950626 -126.07956209 21.54145859 -111 6 C-110.45988281 5.38640625 -109.91976562 4.7728125 -109.36328125 4.140625 C-81.97662493 -25.93640813 -30.0003906 -24.99276568 0 0 Z M-24.83764648 40.37475586 C-26.18126902 42.00793673 -26.18126902 42.00793673 -26.4375 44.4375 C-25.8742644 47.73645138 -24.39751661 48.76390035 -22 51 C-25.62869458 53.10110416 -29.25827529 55.20066679 -32.88867188 57.29882812 C-34.1226385 58.01227577 -35.35636534 58.72613831 -36.58984375 59.44042969 C-38.36655254 60.46920139 -40.14412859 61.49646013 -41.921875 62.5234375 C-42.99018555 63.14138184 -44.05849609 63.75932617 -45.15917969 64.39599609 C-47.41432111 65.66930987 -49.6691524 66.8739154 -52 68 C-52.27070313 67.27296875 -52.54140625 66.5459375 -52.8203125 65.796875 C-53.96955836 63.07217289 -55.2694077 60.72910106 -56.875 58.25 C-57.36742187 57.47140625 -57.85984375 56.6928125 -58.3671875 55.890625 C-60.28858128 53.66585325 -61.1267801 53.3597253 -64 53 C-65.97941483 53.63592147 -65.97941483 53.63592147 -67.921875 54.81640625 C-68.68886719 55.24429443 -69.45585937 55.67218262 -70.24609375 56.11303711 C-71.07238281 56.59135986 -71.89867187 57.06968262 -72.75 57.5625 C-74.04357422 58.29448608 -74.04357422 58.29448608 -75.36328125 59.04125977 C-78.24972773 60.6813095 -81.12453078 62.34078912 -84 64 C-86.17169298 65.2372987 -88.3435721 66.47427075 -90.515625 67.7109375 C-92.6778963 68.95170933 -94.83936928 70.19387352 -97 71.4375 C-98.0322168 72.02797119 -99.06443359 72.61844238 -100.12792969 73.22680664 C-101.09633789 73.79004639 -102.06474609 74.35328613 -103.0625 74.93359375 C-103.91972656 75.42915771 -104.77695313 75.92472168 -105.66015625 76.43530273 C-108.12824792 78.08576178 -110.06961618 79.74369634 -112 82 C-112.08805146 84.6433774 -112.08805146 84.6433774 -111 87 C-108.20354675 89.30459089 -108.20354675 89.30459089 -105.15087891 88.80712891 C-101.86302436 87.96491233 -99.49275328 86.82397436 -96.5859375 85.0859375 C-95.57660156 84.48910156 -94.56726563 83.89226562 -93.52734375 83.27734375 C-92.48707031 82.64957031 -91.44679688 82.02179688 -90.375 81.375 C-88.3203125 80.15364583 -86.265625 78.93229167 -84.2109375 77.7109375 C-83.19870117 77.10475586 -82.18646484 76.49857422 -81.14355469 75.87402344 C-76.11790328 72.87799205 -71.05937717 69.9386126 -66 67 C-63.42520192 70.1906117 -61.00102608 73.38480119 -58.75 76.8125 C-58.22921875 77.60269531 -57.7084375 78.39289063 -57.171875 79.20703125 C-56.78515625 79.79871094 -56.3984375 80.39039063 -56 81 C-50.63678312 80.51027439 -47.00329494 79.21914069 -42.3671875 76.5078125 C-41.76746124 76.16120575 -41.16773499 75.814599 -40.54983521 75.45748901 C-38.65184006 74.35721496 -36.76349801 73.24147963 -34.875 72.125 C-33.6008638 71.3830774 -32.32612858 70.64218251 -31.05078125 69.90234375 C-26.01137243 66.97241669 -20.99445252 64.00595272 -16 61 C-15.5978125 62.423125 -15.5978125 62.423125 -15.1875 63.875 C-14.25013412 67.25267273 -14.25013412 67.25267273 -11 69 C-8.97922654 69.05901922 -8.97922654 69.05901922 -7 68 C-3.60218548 64.13227496 -0.9545627 59.8961834 1.6875 55.5 C2.09033203 54.84902344 2.49316406 54.19804687 2.90820312 53.52734375 C5.98577814 48.59831715 5.98577814 48.59831715 7 43 C4.8747949 40.24341648 3.67225422 39.1207484 0.20678711 38.49829102 C-0.8424292 38.50014404 -1.89164551 38.50199707 -2.97265625 38.50390625 C-4.11927734 38.50326172 -5.26589844 38.50261719 -6.44726562 38.50195312 C-7.64029297 38.52193359 -8.83332031 38.54191406 -10.0625 38.5625 C-11.25939453 38.55541016 -12.45628906 38.54832031 -13.68945312 38.54101562 C-19.60565804 38.23470509 -19.60565804 38.23470509 -24.83764648 40.37475586 Z " fill="#106EFF" transform="translate(307,192)"/>
<path d="M0 0 C1.94604492 1.15234375 1.94604492 1.15234375 3 3 C3.64537399 12.33562149 1.14570317 22.44106309 -0.41918945 31.65966797 C-0.81622679 34.02217569 -1.19038738 36.38766629 -1.56445312 38.75390625 C-1.81892368 40.2736707 -2.07473407 41.79321155 -2.33203125 43.3125 C-2.43949173 44.01149414 -2.54695221 44.71048828 -2.65766907 45.43066406 C-3.45526598 49.9345462 -4.72638658 52.78344219 -8 56 C-11.0625 56.5 -11.0625 56.5 -14 56 C-15.6640625 54.70703125 -15.6640625 54.70703125 -17 53 C-17.63635651 45.2364506 -16.22005152 37.65800197 -15 30 C-19.36159397 34.91729335 -23.19416575 39.95403266 -26.8125 45.4375 C-27.33239502 46.22390869 -27.85229004 47.01031738 -28.38793945 47.82055664 C-33.31109956 55.34942805 -37.83614529 63.02730405 -42 71 C-42.55034912 72.04365723 -42.55034912 72.04365723 -43.11181641 73.10839844 C-70.9082218 126.53243898 -75.60922525 191.75317832 -58.1796875 249.13671875 C-54.27857183 261.46447769 -49.68455348 273.38708601 -44 285 C-43.62117676 285.77682129 -43.24235352 286.55364258 -42.85205078 287.35400391 C-37.14391794 298.9222682 -30.63510791 309.60923885 -23 320 C-22.58250488 320.57443848 -22.16500977 321.14887695 -21.73486328 321.74072266 C-15.41426908 330.39299183 -8.42558958 338.28536363 -1 346 C-0.17193848 346.86890869 -0.17193848 346.86890869 0.67285156 347.75537109 C8.36765125 355.79953491 16.33382109 363.09524274 25.28076172 369.72509766 C26.94971322 370.9627098 28.60177553 372.22053819 30.25390625 373.48046875 C58.9448064 395.00505381 92.95026042 408.29539736 128 415 C129.205354 415.24556641 129.205354 415.24556641 130.43505859 415.49609375 C156.58005255 420.66845307 186.91932748 420.31340752 213 415 C213.86931152 414.83371094 214.73862305 414.66742188 215.63427734 414.49609375 C261.44781104 405.61782058 305.63833912 383.79276238 338.08203125 349.80078125 C338.60869385 349.25397705 339.13535645 348.70717285 339.67797852 348.14379883 C340.70212184 347.07289388 341.71503038 345.99109444 342.71459961 344.8972168 C345.11241236 342.3902073 346.83409703 341.05081161 350.17578125 340.02734375 C353 340 353 340 355.9375 342.0625 C358 345 358 345 357.86401367 347.91137695 C356.88736477 351.40264152 355.79468489 352.82489626 353.23828125 355.35546875 C352.45614258 356.13728516 351.67400391 356.91910156 350.86816406 357.72460938 C350.02479492 358.53736328 349.18142578 359.35011719 348.3125 360.1875 C347.44979492 361.03248047 346.58708984 361.87746094 345.69824219 362.74804688 C339.35259643 368.88413327 332.82323581 374.55450554 325.69482422 379.75390625 C323.93279423 381.04941202 322.20219615 382.38024064 320.47265625 383.71875 C282.07585452 413.12114745 231.07870069 431.94319095 182.5234375 432.203125 C181.64367752 432.21013931 180.76391754 432.21715363 179.85749817 432.22438049 C177.02994621 432.24180462 174.20260369 432.24823385 171.375 432.25 C170.40913971 432.25067474 169.44327942 432.25134949 168.44815063 432.25204468 C154.09906385 432.23610274 140.11258279 431.82415533 126 429 C125.09137207 428.82307617 124.18274414 428.64615234 123.24658203 428.46386719 C83.52323516 420.54518313 44.92016219 404.32181173 13.60449219 378.328125 C12.04366015 377.03613987 10.46344938 375.7676787 8.8828125 374.5 C-4.66065469 363.51154452 -17.51989129 350.96022071 -28 337 C-28.41233887 336.46407227 -28.82467773 335.92814453 -29.24951172 335.37597656 C-45.30752234 314.49178788 -57.85406137 291.67762233 -67 267 C-67.27440918 266.27264648 -67.54881836 265.54529297 -67.83154297 264.79589844 C-85.58610772 217.20883374 -86.53408604 163.9170053 -74 115 C-73.78504883 114.15953125 -73.57009766 113.3190625 -73.34863281 112.453125 C-64.706492 79.58973751 -48.56180346 49.86947751 -28 23 C-29.39412109 23.55880859 -29.39412109 23.55880859 -30.81640625 24.12890625 C-32.06478371 24.60760738 -33.31350017 25.08542509 -34.5625 25.5625 C-35.78066406 26.03816406 -36.99882813 26.51382813 -38.25390625 27.00390625 C-42.34032396 28.09049281 -44.9173341 28.00426516 -49 27 C-51 25 -51 25 -51.3125 21.5625 C-51 18 -51 18 -49.7300415 16.38468933 C-47.85790425 14.88626951 -46.25176743 14.1150019 -44.00683594 13.2824707 C-43.20880554 12.98238602 -42.41077515 12.68230133 -41.58856201 12.37312317 C-40.7291803 12.06050034 -39.86979858 11.7478775 -38.984375 11.42578125 C-38.09518372 11.09708542 -37.20599243 10.76838959 -36.28985596 10.42973328 C-34.40849442 9.7372525 -32.52553181 9.0491084 -30.64111328 8.36499023 C-27.7695214 7.31960663 -24.90621744 6.25353716 -22.04296875 5.18554688 C-20.21140363 4.51435164 -18.37938615 3.84438929 -16.546875 3.17578125 C-15.69559021 2.85708572 -14.84430542 2.5383902 -13.96722412 2.21003723 C-9.19311661 0.4984366 -5.1449078 -0.64250389 0 0 Z " fill="#106EFF" transform="translate(84,76)"/>
<path d="M0 0 C1.19882812 0.32871094 2.39765625 0.65742188 3.6328125 0.99609375 C17.82566471 5.27765355 30.91877797 12.1115484 42 22 C43.2065625 22.99386719 43.2065625 22.99386719 44.4375 24.0078125 C64.00305962 40.5773958 75.75794385 63.95920587 80 89 C80.13148438 89.76183594 80.26296875 90.52367187 80.3984375 91.30859375 C84.22712385 118.67852725 76.94105791 147.94860659 60.6875 170.25 C59.15138059 172.18787371 57.58815832 174.1045395 56 176 C55.15566406 177.00804687 54.31132812 178.01609375 53.44140625 179.0546875 C39.25291478 195.47894126 20.8846258 206.27357034 0 212 C-1.09570312 212.31839844 -2.19140625 212.63679687 -3.3203125 212.96484375 C-20.26220976 217.15207804 -40.24989095 216.86738463 -57 212 C-58.79824219 211.50693359 -58.79824219 211.50693359 -60.6328125 211.00390625 C-74.82566471 206.72234645 -87.91877797 199.8884516 -99 190 C-99.804375 189.33742188 -100.60875 188.67484375 -101.4375 187.9921875 C-121.00305962 171.4226042 -132.75794385 148.04079413 -137 123 C-137.13148438 122.23816406 -137.26296875 121.47632813 -137.3984375 120.69140625 C-141.23508645 93.26455093 -133.92191626 63.92291291 -117.5625 41.625 C-116.06371155 39.73233199 -114.54347154 37.85640907 -113 36 C-112.29101562 35.13890625 -111.58203125 34.2778125 -110.8515625 33.390625 C-84.3744567 2.61218433 -39.25078426 -11.40581613 0 0 Z M-99.83203125 45.13671875 C-116.15312482 64.9617586 -123.87746037 89.68202033 -121.72265625 115.296875 C-119.39642162 134.88155508 -111.96278459 152.13092356 -99 167 C-98.51015625 167.62132812 -98.0203125 168.24265625 -97.515625 168.8828125 C-83.88581634 185.9583593 -61.26739695 196.1496363 -40 199 C-11.62507336 201.27151016 12.85122508 193.44042622 34.75 175.25 C53.42024223 157.70489478 63.65154074 134.37868567 65.18359375 108.953125 C65.71756318 85.20719014 57.40614973 62.91560505 42 45 C41.50886719 44.37609375 41.01773438 43.7521875 40.51171875 43.109375 C27.62776952 26.99536526 5.47421375 15.9926601 -14.87353516 13.21533203 C-47.24452037 9.93735167 -78.10738128 20.22526861 -99.83203125 45.13671875 Z " fill="#2E394B" transform="translate(283,150)"/>
<path d="M0 0 C0.94587982 0.00182281 1.89175964 0.00364563 2.86630249 0.00552368 C17.05477527 0.05151573 30.92343335 0.51090508 44.875 3.3125 C45.79958008 3.49474121 46.72416016 3.67698242 47.67675781 3.86474609 C59.63930152 6.28107495 71.33443832 9.34955999 82.875 13.3125 C84.68677734 13.91964844 84.68677734 13.91964844 86.53515625 14.5390625 C113.00886843 23.73708685 137.16171286 37.7337936 158.875 55.3125 C159.47763672 55.79799316 160.08027344 56.28348633 160.70117188 56.78369141 C174.68843778 68.14737037 188.01184316 80.90260351 198.875 95.3125 C199.28878906 95.84987793 199.70257813 96.38725586 200.12890625 96.94091797 C207.81576589 106.9388779 214.56113145 117.40061847 220.875 128.3125 C221.26929199 128.98974121 221.66358398 129.66698242 222.06982422 130.36474609 C237.40771749 157.03109614 246.46458495 186.97436466 250.875 217.3125 C250.99214355 218.11365234 251.10928711 218.91480469 251.22998047 219.74023438 C257.36925455 264.00139019 250.77636802 311.39508737 232.875 352.3125 C234.64608948 351.18790329 236.41686236 350.06280797 238.1875 348.9375 C239.17363281 348.31101562 240.15976562 347.68453125 241.17578125 347.0390625 C243.08787929 345.81598387 244.9864034 344.5715644 246.875 343.3125 C250.4375 343.5 250.4375 343.5 253.875 344.3125 C255.875 347.3125 255.875 347.3125 255.89453125 350.68359375 C254.60485789 355.27404031 252.37934951 356.87917952 248.5625 359.375 C247.9118457 359.82544678 247.26119141 360.27589355 246.59082031 360.73999023 C245.15478448 361.73232782 243.71252901 362.71570735 242.26513672 363.69140625 C239.66758983 365.45317452 237.09997898 367.25344565 234.53515625 369.0625 C216.34456673 381.89013989 216.34456673 381.89013989 209.875 381.3125 C207.90966829 379.81965667 207.02246601 378.8466259 206.36238098 376.45578003 C206.29798325 375.76122711 206.23358551 375.06667419 206.16723633 374.35107422 C206.08737991 373.55949921 206.0075235 372.76792419 205.92524719 371.95236206 C205.85323593 371.09925446 205.78122467 370.24614685 205.70703125 369.3671875 C205.62249191 368.48273956 205.53795258 367.59829163 205.45085144 366.68704224 C205.27420202 364.81310033 205.10398237 362.93854288 204.93969727 361.06347656 C204.69017195 358.21797006 204.42214844 355.37471053 204.15039062 352.53125 C203.98067393 350.70583082 203.81202081 348.88031238 203.64453125 347.0546875 C203.5664473 346.21372528 203.48836334 345.37276306 203.40791321 344.50631714 C203.05760699 340.47337322 202.77836681 336.43710151 202.6394043 332.39111328 C202.59761299 331.32221359 202.59761299 331.32221359 202.55497742 330.23171997 C202.97945076 327.68609424 203.82668148 326.84202121 205.875 325.3125 C209.375 324.875 209.375 324.875 212.875 325.3125 C216.79718333 328.77926394 216.60576239 333.54431559 217 338.4375 C217.14521131 340.06539517 217.29350283 341.6930194 217.4453125 343.3203125 C217.53449951 344.39756592 217.53449951 344.39756592 217.62548828 345.49658203 C217.78910803 347.4084646 217.78910803 347.4084646 218.875 349.3125 C243.26120069 287.45919071 246.77877097 220.83756255 220.35595703 158.74267578 C214.2177543 145.01637484 207.44004478 131.68964568 198.875 119.3125 C198.17761719 118.30445312 197.48023438 117.29640625 196.76171875 116.2578125 C182.44218746 96.18266378 165.48667423 77.20516248 145.56201172 62.55517578 C143.90398451 61.33385039 142.26623502 60.08872084 140.62890625 58.83984375 C112.33054608 37.59504333 78.46234473 24.07019401 43.875 17.3125 C43.05999023 17.14878906 42.24498047 16.98507813 41.40527344 16.81640625 C14.8384488 11.74408155 -16.66499603 11.54789705 -43.125 17.3125 C-44.19782227 17.54356445 -45.27064453 17.77462891 -46.37597656 18.01269531 C-73.56639116 24.0322942 -100.09363812 32.95505679 -123.52075195 48.30224609 C-126.84595703 50.39251646 -128.46021019 51.33646335 -132.484375 51.19140625 C-135.125 50.3125 -135.125 50.3125 -137.0625 48.625 C-138.125 46.3125 -138.125 46.3125 -138.375 43.4375 C-133.81507053 32.03767632 -109.38387061 24.09105138 -98.8046875 19.5234375 C-67.01408027 6.26668537 -34.39124224 -0.13784141 0 0 Z " fill="#106EFF" transform="translate(254.125,3.6875)"/>
<path d="M0 0 C4.41362707 0.99765531 7.08918581 4.34918348 10.16015625 7.48828125 C11.19185874 8.4892018 12.22587342 9.48774247 13.26171875 10.484375 C14.35415805 11.54684876 15.44530397 12.61065398 16.53515625 13.67578125 C17.05948242 14.18657227 17.58380859 14.69736328 18.12402344 15.22363281 C21.88446449 18.97916788 24.11932644 21.36513093 24.22265625 26.73828125 C21.65426941 35.80317598 11.90946015 42.89102022 5.41015625 49.36328125 C4.45556091 50.32144699 3.50113282 51.27977938 2.546875 52.23828125 C1.64066406 53.14320313 0.73445313 54.048125 -0.19921875 54.98046875 C-1.01874023 55.7988623 -1.83826172 56.61725586 -2.68261719 57.46044922 C-5.68483972 60.28259277 -7.40095332 61.42133186 -11.52734375 62.05078125 C-17.25388678 61.84329781 -19.99845399 58.38055035 -23.83984375 54.48828125 C-24.95642244 53.45874402 -26.07648634 52.43297921 -27.19921875 51.41015625 C-28.3932839 50.29181151 -29.58598684 49.1720106 -30.77734375 48.05078125 C-31.35766357 47.52589111 -31.9379834 47.00100098 -32.53588867 46.46020508 C-35.41083726 43.67407118 -37.21032965 41.4464597 -37.96875 37.453125 C-37.74079816 30.44187889 -32.8702615 26.22170814 -28.0859375 21.50390625 C-27.27274803 20.69140411 -27.27274803 20.69140411 -26.44313049 19.86248779 C-25.30503494 18.72739399 -24.16452944 17.59471181 -23.02172852 16.46435547 C-21.27362512 14.73460165 -19.53374976 12.99688539 -17.79492188 11.2578125 C-16.6840659 10.1518693 -15.57275358 9.04638424 -14.4609375 7.94140625 C-13.94212509 7.42370667 -13.42331268 6.90600708 -12.88877869 6.37261963 C-8.80164435 2.33898612 -6.01075626 -0.20726746 0 0 Z " fill="#106EFF" transform="translate(131.83984375,354.51171875)"/>
<path d="M0 0 C3.2432402 1.52573918 5.04333863 2.95551964 7.3125 5.75 C10.58296551 9.62925346 14.07255716 12.79392422 18 16 C17.42118732 19.54822446 16.17307641 21.18422803 13.62109375 23.671875 C12.61079102 24.66767578 12.61079102 24.66767578 11.58007812 25.68359375 C10.87302734 26.36550781 10.16597656 27.04742187 9.4375 27.75 C8.72658203 28.44738281 8.01566406 29.14476562 7.28320312 29.86328125 C5.52869286 31.5824658 3.76756648 33.29425872 2 35 C-2.51572304 31.22369848 -6.81275974 27.32390572 -10.9375 23.125 C-11.43056641 22.62742187 -11.92363281 22.12984375 -12.43164062 21.6171875 C-13.62345992 20.41379715 -14.81208678 19.20724635 -16 18 C-14.6415798 14.95667235 -13.11536976 12.87690849 -10.7421875 10.546875 C-10.11699219 9.928125 -9.49179688 9.309375 -8.84765625 8.671875 C-8.19667969 8.03765625 -7.54570312 7.4034375 -6.875 6.75 C-6.21628906 6.1003125 -5.55757812 5.450625 -4.87890625 4.78125 C-3.25703357 3.18288273 -1.6306719 1.58938103 0 0 Z " fill="#2E394B" transform="translate(160,332)"/>
</svg>
